<svg width="363" height="63" viewBox="0 0 363 63" fill="none" xmlns="http://www.w3.org/2000/svg">
<path d="M55.4481 62.9911C50.8002 62.9911 46.5506 60.3263 43.8592 55.7846C41.1678 60.3174 36.9182 62.9911 32.2702 62.9911H32.1906C27.1176 62.9557 22.5582 59.7508 19.973 54.4123V54.3769L0 11.8811L25.4709 0L43.8326 38.9279L61.9996 0L87.4616 11.8723L67.7542 54.4212C65.1691 59.7597 60.6096 62.9646 55.5367 63H55.457M49.7201 51.4022C51.11 54.1733 53.2083 55.758 55.457 55.758H55.4836C57.7589 55.7403 59.8571 54.1201 61.2205 51.2871L77.8647 15.387L65.5143 9.62352L47.8609 47.4536L49.7289 51.4022H49.7201ZM26.5156 51.2871C27.8879 54.1201 29.9772 55.7492 32.2437 55.758H32.2791C34.5367 55.758 36.6261 54.1733 38.0249 51.411L39.8575 47.4802L21.9916 9.61467L9.65008 15.3693L26.5067 51.2694L26.5156 51.2871Z" fill="#1F263A"/>
<path d="M236.92 46.1211C235.901 45.1009 234.653 44.5908 233.178 44.5908C231.686 44.5908 230.414 45.1009 229.362 46.1211C228.326 47.1305 227.808 48.3461 227.808 49.768C227.808 51.2115 228.35 52.4516 229.435 53.4881C230.487 54.5083 231.735 55.0184 233.178 55.0184C234.604 55.0184 235.836 54.5002 236.872 53.4637C237.908 52.4271 238.426 51.1952 238.426 49.768C238.426 48.3461 237.924 47.1305 236.92 46.1211ZM147.258 23.3284H139.724V54.1963H147.258V23.3284ZM211.193 23.304V26.7066C208.894 23.8847 205.818 22.4737 201.967 22.4737C197.709 22.4737 194.161 24.0231 191.325 27.1218C188.477 30.2151 187.053 34.079 187.053 38.7135C187.053 43.348 188.477 47.2119 191.325 50.3052C194.161 53.3985 197.709 54.9452 201.967 54.9452C205.834 54.9452 208.91 53.5451 211.193 50.7448V54.1474H218.801V23.304H211.193ZM194.652 38.7135C194.652 36.1846 195.431 34.0681 196.987 32.3641C198.571 30.6167 200.595 29.7429 203.057 29.7429C205.536 29.7429 207.562 30.595 209.135 32.299C210.67 33.9813 211.438 36.1195 211.438 38.7135C211.438 41.3238 210.686 43.462 209.184 45.128C207.627 46.8321 205.585 47.6841 203.057 47.6841C200.546 47.6841 198.506 46.8076 196.939 45.0548C195.414 43.3724 194.652 41.2587 194.652 38.7135ZM177.745 23.5238L169.243 47.0736L160.765 23.5238L153.377 26.1938L162.66 49.7436C164.195 53.2113 166.39 54.9452 169.243 54.9452C172.074 54.9452 174.276 53.2113 175.849 49.7436L185.133 26.1938L177.745 23.5238ZM126.364 23.5238L117.862 47.0736L109.359 23.5238L101.996 26.1938L111.28 49.7436C112.815 53.2113 115.009 54.9452 117.862 54.9452C120.71 54.9452 122.904 53.2113 124.444 49.7436L133.752 26.1938L126.364 23.5238ZM143.491 8.04102C142.13 8.04102 140.988 8.51044 140.066 9.44928C139.144 10.3881 138.683 11.5386 138.683 12.9008C138.683 14.2629 139.144 15.4052 140.066 16.3278C141.004 17.2504 142.146 17.7116 143.491 17.7116C144.836 17.7116 145.978 17.2504 146.917 16.3278C147.855 15.4052 148.324 14.2629 148.324 12.9008C148.324 11.5386 147.863 10.3881 146.941 9.44928C146.003 8.51044 144.853 8.04102 143.491 8.04102ZM265.674 30.5895C265.68 30.595 265.685 30.6004 265.69 30.6058C266.878 31.1648 267.893 31.9327 268.733 32.9095L273.941 27.9928C272.4 26.2508 270.45 24.9049 268.091 23.9552V23.9471H268.083C265.81 23.0299 263.407 22.5714 260.874 22.5714C256.052 22.5714 252.133 24.0556 249.117 27.0241C246.085 30.0089 244.569 33.9053 244.569 38.7135C244.569 43.4729 246.085 47.3449 249.117 50.3297C252.1 53.2927 255.938 54.7742 260.63 54.7742C266.52 54.7742 271.003 52.9427 274.079 49.2796L268.937 44.2977C267.033 46.5227 264.538 47.6352 261.451 47.6352C258.87 47.6352 256.765 46.7995 255.138 45.128C253.5 43.4674 252.681 41.3048 252.681 38.6402C252.681 35.9757 253.491 33.8212 255.113 32.1769C256.724 30.5054 258.837 29.6697 261.451 29.6697C262.965 29.6697 264.372 29.9763 265.674 30.5895ZM304.956 27.0322C301.919 24.0583 297.927 22.5714 292.98 22.5714C288.049 22.5714 284.046 24.0855 280.97 27.1136C280.965 27.1136 280.96 27.1191 280.954 27.1299C277.922 30.1093 276.406 33.946 276.406 38.6402C276.406 43.3182 277.955 47.174 281.052 50.2076C284.165 53.252 288.141 54.7742 292.98 54.7742C297.829 54.7742 301.789 53.2846 304.859 50.3052C307.934 47.3042 309.472 43.4159 309.472 38.6402C309.472 33.8484 307.967 29.979 304.956 27.0322ZM298.984 32.185C300.568 33.8565 301.36 36.0082 301.36 38.6402C301.36 41.256 300.544 43.4186 298.911 45.128C297.327 46.7995 295.35 47.6352 292.98 47.6352C290.495 47.6352 288.459 46.7751 286.869 45.0548C285.302 43.3562 284.518 41.218 284.518 38.6402C284.518 36.0408 285.294 33.9108 286.845 32.2501C288.434 30.5298 290.479 29.6697 292.98 29.6697C295.399 29.6697 297.4 30.5081 298.984 32.185ZM340.479 27.4474C340.452 27.4311 340.433 27.4121 340.422 27.3904C338.611 24.1235 335.546 22.49 331.228 22.49C329.476 22.49 327.808 22.8753 326.225 23.6459C324.576 24.4274 323.138 25.5561 321.912 27.0322C321.896 27.0485 321.877 27.0621 321.855 27.0729C321.828 27.0838 321.804 27.0892 321.782 27.0892H321.733C321.69 27.0892 321.652 27.0729 321.619 27.0404C321.587 27.0078 321.571 26.9698 321.571 26.9264V22.954H313.418V54.2777H321.571V38.6402C321.571 35.8237 322.208 33.6286 323.483 32.0548C324.709 30.519 326.344 29.7511 328.389 29.7511C330.342 29.7511 331.803 30.5163 332.774 32.0466C333.669 33.4522 334.117 35.4791 334.117 38.1274V54.2777H342.269V38.6402C342.269 35.8563 342.915 33.6611 344.206 32.0548C345.415 30.519 346.978 29.7511 348.892 29.7511C352.662 29.7348 354.547 32.5269 354.547 38.1274V54.2777H362.7V36.1086C362.7 31.4578 361.71 27.9846 359.73 25.6891C357.875 23.5563 355.209 22.49 351.732 22.49C349.47 22.49 347.412 22.9078 345.556 23.7436V23.7517C343.658 24.5766 342.077 25.7976 340.813 27.4148C340.797 27.4311 340.778 27.4447 340.756 27.4555C340.729 27.4664 340.705 27.4718 340.683 27.4718H340.561C340.534 27.4718 340.507 27.4637 340.479 27.4474Z" fill="#1F263A"/>
</svg>
